<svg width="145" height="192" viewBox="0 0 145 192" fill="none" xmlns="http://www.w3.org/2000/svg">
<ellipse cx="50.9997" cy="30" rx="25" ry="30" fill="#108FAB"/>
<path d="M9.51834 107.54C13.2197 83.7111 37.2486 63.5872 56 66.4999C56 65.3374 53.3556 75.5 66.5 86.4999C1.5 114.5 50.5 169.5 32.5 172C13 158 5.81696 131.368 9.51834 107.54Z" fill="#108FAB"/>
<path d="M38.0221 128.405C41.7235 104.577 63.1082 88.1155 81.8595 91.0282C101.434 91.0281 128.434 118.962 101.434 128.405C33.0564 152.321 100.434 195.76 65.4346 184.982C46.6832 182.069 34.3207 152.234 38.0221 128.405Z" fill="#08D3FF"/>
<rect x="118" y="3" width="10" height="40" rx="5" fill="#FFB800"/>
<rect x="103" y="28" width="9" height="42" rx="4.5" transform="rotate(-90 103 28)" fill="#FFB800"/>
<path d="M110 58C110 74.5685 98.8068 88 84.9997 88C71.1926 88 59.9997 74.5685 59.9997 58C59.9997 41.4315 71.1926 28 84.9997 28C98.8068 28 110 41.4315 110 58Z" fill="#1FD7FF"/>
</svg>
